<svg width="24" height="24" viewBox="0 0 24 24" fill="none" xmlns="http://www.w3.org/2000/svg">
<path d="M7 8L11.0239 11.2191C11.5243 11.6195 11.5243 12.3805 11.0239 12.7809L7 16" stroke="white" stroke-width="1.5" stroke-linecap="round"/>
<path d="M12.5 16H17" stroke="white" stroke-width="1.5" stroke-linecap="round" stroke-linejoin="round"/>
<path d="M3.29912 6.23274C3.40769 5.18961 4.34486 4.36779 5.51848 4.27788C10.3428 3.90829 13.6924 3.90722 18.4781 4.2756C19.6574 4.36639 20.5958 5.19647 20.7002 6.24512C21.1214 10.4776 21.0825 13.4661 20.6853 17.734C20.5866 18.7944 19.6418 19.6389 18.4497 19.7287C13.65 20.0905 10.3044 20.0897 5.56588 19.7305C4.37088 19.6399 3.42612 18.7909 3.3285 17.7278C2.94056 13.503 2.85423 10.5072 3.29912 6.23274Z" stroke="white" stroke-width="1.5"/>
</svg>
